# xmcd
# 
# Track frame offsets:
#     150
#     16339
#     28987
#     41288
#     59909
#     72465
#     86711
#     101236
#     112358
#     126293
#     137337
#     158254
# 
# Disc length: 2411
# 
# Revision: 3
# Processed by: cddbd v1.5.2PL0 Copyright (c) Steve Scherf et al.
# Submitted via: fre:ac v1.1beta1pre3
# 
DISCID=ab09690c
DTITLE=George Jones - The George Jones Collection
DYEAR=1999
DGENRE=Country
TTITLE0=You Couldn't Get The Picture
TTITLE1=I Don't Need Your Rocking Chair Featuring Vince Gill, Mark Chesnutt, Garth Brooks, Travis Tritt, Joe Diffie, Alan Jackson, Pam Tillis, T Graham Brown, Patty Loveless and Clint Black
TTITLE2=Wrong's What I Do Best
TTITLE3=One Featuring Tammy Wynette
TTITLE4=Honky Tonk Song
TTITLE5=Walls Can Fall
TTITLE6=She Loved A Lot In Her Name
TTITLE7=Honky Tonk Myself To Death
TTITLE8=Golden Ring Featuring Tammy Wynette
TTITLE9=High-Tech Redneck
TTITLE10=Wild Irish Rose
TTITLE11=Patches Featuring B.B. King
EXTD=
EXTT0=
EXTT1=
EXTT2=
EXTT3=
EXTT4=
EXTT5=
EXTT6=
EXTT7=
EXTT8=
EXTT9=
EXTT10=
EXTT11=
PLAYORDER=
